<svg width="418" height="418" viewBox="0 0 418 418" fill="none" xmlns="http://www.w3.org/2000/svg">
<circle cx="209" cy="209" r="200" fill="#6FBFA2"/>
<circle cx="209" cy="209" r="200" fill="#F5F3D9"/>
<circle cx="209" cy="209" r="200" fill="#F2E59F"/>
<circle cx="209" cy="209" r="200" fill="#F2B694"/>
<circle cx="209" cy="209" r="200" fill="url(#paint0_radial_1013:274)"/>
<path d="M115.093 389.395V316.29L81.0355 289.251L60 252.197L68.5144 212.641L90.5516 184.6H115.093V153.055L128.616 122.01L154.66 115H185.712L210.254 153.055L216.264 130.022L242.809 115H278.87L301.408 137.032V184.6H326.951L341.976 197.619L356 244.186L341.976 289.251L301.408 316.29V389.395C242.308 425.447 187.716 426.949 115.093 389.395Z" fill="white" stroke="white"/>
<path d="M134.995 218.499H121.495L115.494 234L121.495 251.501H142.496V234L134.995 218.499Z" fill="#C1E4A5"/>
<path d="M178.998 167.496H162.997L154.997 187.997L162.997 203.498L178.998 209.498L188.999 187.997L178.998 167.496Z" fill="#C1E4A5"/>
<path d="M256.003 167.496H244.002L228.501 187.997L234.002 209.498H260.503L265.004 183.497L256.003 167.496Z" fill="#C1E4A5"/>
<path d="M303.006 225.999L289.505 216.999L276.004 232.5V250.501L289.505 254.501L303.006 244.001V225.999Z" fill="#C1E4A5"/>
<path d="M178.998 167.496H162.997L154.997 187.997L162.997 203.498L178.998 209.498L188.999 187.997L178.998 167.496Z" stroke="#333333"/>
<path d="M256.003 167.496H244.002L228.501 187.997L234.002 209.498H260.503L265.004 183.497L256.003 167.496Z" stroke="#333333"/>
<path d="M303.006 225.999L289.505 216.999L276.004 232.5V250.501L289.505 254.501L303.006 244.001V225.999Z" stroke="#333333"/>
<path d="M213.284 237L184.097 247.079L169 261.189L177.052 285.378L213.284 301L247 285.378V261.189L213.284 237Z" fill="#6FBFA2"/>
<path d="M213.284 237L184.097 247.079L169 261.189L177.052 285.378L213.284 301L247 285.378V261.189L213.284 237Z" fill="#FFF67D"/>
<path d="M213.284 237L184.097 247.079L169 261.189L177.052 285.378L213.284 301L247 285.378V261.189L213.284 237Z" fill="#FFE898"/>
<path d="M105.989 173.313C106.863 144.089 111.848 115.981 144.367 105.353C170.282 96.8844 192.572 104.752 209.175 127.968C225.964 104.437 248.656 96.7127 274.714 105.553C306.616 116.381 311.602 144.246 312.275 173.27C348.676 181.91 365.852 207.3 362.614 247.224C360.079 278.536 344.593 301.152 316.401 314.884C312.06 317.001 310.814 319.461 310.799 323.967C310.756 342.992 310.298 362.017 310.183 381.042C310.14 386.635 308.35 391.083 302.29 390.898C296.202 390.726 294.798 385.991 294.827 380.527C294.927 358.612 295.013 336.698 294.812 314.798C294.755 308.375 297.534 305.157 303.436 302.925C341.055 288.764 358.417 243.705 340.453 207.486C334.021 194.526 322.732 188.576 308.178 190.464C297.291 191.88 295.228 189.091 295.4 177.905C295.557 167.505 295.357 156.72 292.821 146.721C287.635 126.208 271.992 116.31 251.163 118.37C233.328 120.143 219.518 134.634 217.498 153.716C217.355 155.132 217.312 156.748 217.068 157.878C216.338 161.354 213.301 165.131 209.462 165.031C206.253 164.959 202.686 160.725 201.282 157.464C199.205 152.643 199.62 146.778 197.686 141.843C191.182 125.193 175.639 116.424 157.36 118.413C139.697 120.329 126.804 132.631 123.939 151.942C122.535 161.397 123.065 171.167 123.122 180.794C123.165 188.49 119.899 191.794 112.307 190.836C91.6782 188.204 78.6708 197.144 74.1153 218.243C67.1818 250.314 74.0007 289.122 116.633 304.07C119.641 305.128 123.079 310.178 123.151 313.453C123.71 336.197 123.395 358.97 123.452 381.743C123.466 387.121 121.217 390.897 115.731 390.998C109.728 391.112 107.45 387.093 107.479 381.371C107.536 362.875 107.307 344.38 107.579 325.884C107.665 320.205 106.362 316.929 100.646 314.154C57.3546 293.084 41.7112 236.667 67.4683 195.857C75.6624 182.868 82.6532 178.749 105.989 173.313Z" fill="#333333"/>
<path d="M198.57 233.821C206.62 231.326 215.244 231.397 223.25 234.022C229.134 235.958 234.758 237.979 239.723 241.091C262.681 255.489 262.61 283.682 240.397 299.127C222.619 311.502 195.772 310.857 178.582 297.664C158.077 281.918 159.254 253.682 181.753 240.575C186.876 237.592 192.587 235.671 198.57 233.821ZM228.732 253.295C217.253 247.473 203.635 247.344 192.171 253.209C191.008 253.797 189.889 254.442 188.827 255.159C176.659 263.305 177.19 276.77 189.071 285.503C201.297 294.48 221.156 294.108 233.036 284.686C243.511 276.369 244.085 263.534 233.108 255.891C231.716 254.915 230.253 254.069 228.732 253.295Z" fill="#333333"/>
<path d="M195.649 182.805C197.199 188.401 197.426 194.299 196.274 199.995C196.161 200.541 196.047 201.043 195.933 201.488C193.032 212.379 185.039 219.913 175.767 220.888C166.494 221.878 157.051 216.225 151.959 206.223C146.257 195.016 145.29 183.321 150.011 171.554C153.396 163.131 159.412 157.205 168.727 156.157C178.085 155.096 185.622 159.472 190.045 167.307C192.164 171.081 194.212 177.624 195.649 182.805ZM181.612 185.416C180.374 179.533 177.999 175.099 172.197 173.678C170.334 173.219 168.499 173.248 166.992 174.18C165.228 175.285 162.014 180.867 161.986 183.063C161.972 184.168 162.626 189.204 162.853 189.793C164.475 194.198 165.698 197.843 167.703 200.971C171.329 206.668 178.369 206.41 180.616 200.139C181.555 197.556 182.778 190.941 181.612 185.416Z" fill="#333333"/>
<path d="M153.94 239.504C153.94 251.577 147.603 261.707 138.429 264.265C128.917 266.923 117.767 262.35 113.039 250.934C109.666 242.79 108.707 233.002 109.073 224.058C109.398 216.171 115.001 210.227 123.159 207.884C131.373 205.526 138.909 207.955 143.538 214.328C148.774 221.558 154.66 239.132 153.94 239.504ZM137.484 242.547C138.881 239.918 138.5 237.975 137.695 234.588C137.399 233.331 135.48 228.945 133.998 226.644C132.318 224.03 127.802 223.829 125.346 225.716C124.626 226.258 123.3 228.059 123.272 228.873C123.102 232.96 124.274 236.203 125.12 239.618C125.276 240.247 126.983 243.861 127.534 244.376C130.554 247.248 135.466 246.348 137.427 242.661L137.484 242.547Z" fill="#333333"/>
<path d="M228.959 167.307C233.381 159.458 240.917 155.096 250.272 156.158C259.571 157.205 265.585 163.132 268.984 171.555C273.718 183.321 272.737 195.016 267.036 206.223C261.946 216.225 252.505 221.878 243.234 220.888C233.978 219.898 225.973 212.365 223.073 201.488C222.959 201.043 222.845 200.541 222.732 199.996C221.566 194.299 221.807 188.415 223.357 182.805C224.779 177.639 226.826 171.096 228.959 167.307ZM238.372 200.182C240.632 206.438 247.656 206.711 251.282 201.014C253.287 197.872 254.509 194.227 256.13 189.836C256.358 189.233 257.012 184.197 256.998 183.106C256.969 180.911 253.756 175.329 251.993 174.224C250.486 173.277 248.651 173.262 246.789 173.722C240.988 175.142 238.613 179.576 237.376 185.459C236.21 190.955 237.433 197.57 238.372 200.182Z" fill="#333333"/>
<path d="M275.694 214.328C280.412 207.955 288.13 205.526 296.526 207.884C304.865 210.227 310.592 216.186 310.924 224.058C311.299 233.003 310.333 242.791 306.87 250.935C302.037 262.337 290.64 266.924 280.916 264.266C271.539 261.694 265.047 251.578 265.061 239.504C264.326 239.133 270.342 221.558 275.694 214.328ZM281.941 242.662C283.946 246.363 288.967 247.263 292.054 244.377C292.617 243.848 294.362 240.233 294.521 239.619C295.387 236.189 296.584 232.96 296.411 228.874C296.382 228.059 295.026 226.273 294.29 225.716C291.765 223.844 287.149 224.03 285.446 226.645C283.946 228.945 281.97 233.346 281.667 234.589C280.844 237.975 280.455 239.919 281.883 242.548L281.941 242.662Z" fill="#333333"/>
<path d="M208.744 418C93.3303 417.946 -0.121073 324.222 0.000117739 208.657C0.121308 93.8721 94.2864 -0.188242 208.892 0.000282901C324.373 0.188808 418.148 94.0202 418 209.209C417.865 324.801 324.4 418.067 208.744 418ZM209.256 15.1765C103.295 14.5436 15.6068 101.4 14.8392 207.701C14.0717 314.284 100.885 402.501 207.209 403.187C314.53 403.874 402.461 317.476 403.188 210.609C403.928 103.177 317.223 15.8094 209.256 15.1765Z" fill="#333333"/>
<defs>
<radialGradient id="paint0_radial_1013:274" cx="0" cy="0" r="1" gradientUnits="userSpaceOnUse" gradientTransform="translate(209 209) rotate(90) scale(200)">
<stop offset="0.015625" stop-color="#F1F1F1"/>
<stop offset="1" stop-color="white"/>
</radialGradient>
</defs>
</svg>
