<svg width="427" height="427" viewBox="0 0 427 427" fill="none" xmlns="http://www.w3.org/2000/svg">
<circle cx="213.5" cy="213.5" r="204.306" fill="#6FBFA2"/>
<circle cx="213.5" cy="213.5" r="204.306" fill="#FFF67D"/>
<circle cx="213.5" cy="213.5" r="204.306" fill="#F2E59F"/>
<circle cx="213.5" cy="213.5" r="204.306" fill="#F2B694"/>
<circle cx="213.5" cy="213.5" r="204.306" fill="url(#paint0_radial_510:78)"/>
<path d="M117.571 397.78V323.101L82.78 295.48L61.2915 257.629L69.9892 217.22L92.5009 188.576H117.571V156.351L131.385 124.638L157.99 117.477H189.711L214.78 156.351L220.92 132.822L248.036 117.477H284.874L307.897 139.983V188.576H333.99L349.339 201.875L363.665 249.445L349.339 295.48L307.897 323.101V397.78C247.525 434.608 191.757 436.143 117.571 397.78Z" fill="white" stroke="white"/>
<path d="M137.901 223.204H124.11L117.98 239.039L124.11 256.917H145.563V239.039L137.901 223.204Z" fill="#C1E4A5"/>
<path d="M182.852 171.103H166.506L158.333 192.045L166.506 207.88L182.852 214.01L193.068 192.045L182.852 171.103Z" fill="#C1E4A5"/>
<path d="M261.515 171.103H249.256L233.421 192.045L239.04 214.01H266.112L270.709 187.448L261.515 171.103Z" fill="#C1E4A5"/>
<path d="M309.53 230.866L295.738 221.672L281.947 237.506V255.895L295.738 259.981L309.53 249.255V230.866Z" fill="#C1E4A5"/>
<path d="M182.852 171.103H166.506L158.333 192.045L166.506 207.88L182.852 214.01L193.068 192.045L182.852 171.103Z" stroke="#333333"/>
<path d="M261.515 171.103H249.256L233.421 192.045L239.04 214.01H266.112L270.709 187.448L261.515 171.103Z" stroke="#333333"/>
<path d="M309.53 230.866L295.738 221.672L281.947 237.506V255.895L295.738 259.981L309.53 249.255V230.866Z" stroke="#333333"/>
<path d="M217.876 242.103L188.06 252.399L172.639 266.813L180.864 291.523L217.876 307.481L252.318 291.523V266.813L217.876 242.103Z" fill="#6FBFA2"/>
<path d="M217.876 242.103L188.06 252.399L172.639 266.813L180.864 291.523L217.876 307.481L252.318 291.523V266.813L217.876 242.103Z" fill="#FFF67D"/>
<path d="M217.876 242.103L188.06 252.399L172.639 266.813L180.864 291.523L217.876 307.481L252.318 291.523V266.813L217.876 242.103Z" fill="#FFE898"/>
<path d="M108.271 177.044C109.164 147.191 114.256 118.478 147.475 107.621C173.948 98.9701 196.718 107.007 213.679 130.723C230.83 106.685 254.01 98.7947 280.628 107.825C313.218 118.887 318.311 147.352 318.998 177C356.183 185.826 373.729 211.763 370.422 252.547C367.831 284.533 352.012 307.635 323.213 321.663C318.779 323.826 317.506 326.339 317.491 330.942C317.447 350.377 316.979 369.811 316.862 389.246C316.818 394.959 314.989 399.504 308.799 399.314C302.579 399.138 301.145 394.302 301.174 388.72C301.277 366.333 301.365 343.947 301.16 321.576C301.101 315.015 303.94 311.727 309.969 309.447C348.398 294.981 366.134 248.952 347.783 211.953C341.213 198.714 329.681 192.636 314.813 194.564C303.691 196.011 301.584 193.162 301.76 181.735C301.921 171.112 301.716 160.094 299.126 149.88C293.828 128.926 277.848 118.814 256.57 120.918C238.351 122.73 224.244 137.532 222.181 157.025C222.035 158.472 221.991 160.123 221.742 161.277C220.996 164.828 217.893 168.686 213.971 168.584C210.693 168.511 207.05 164.185 205.615 160.854C203.494 155.929 203.918 149.938 201.942 144.897C195.299 127.888 179.421 118.931 160.748 120.962C142.705 122.92 129.534 135.486 126.607 155.213C125.173 164.872 125.715 174.852 125.773 184.686C125.817 192.548 122.481 195.923 114.725 194.944C93.652 192.256 80.3645 201.388 75.7109 222.942C68.6282 255.703 75.5939 295.346 119.144 310.616C122.217 311.698 125.729 316.856 125.803 320.202C126.373 343.436 126.051 366.699 126.11 389.962C126.124 395.456 123.827 399.314 118.222 399.416C112.091 399.533 109.764 395.427 109.793 389.582C109.852 370.688 109.618 351.794 109.896 332.9C109.983 327.099 108.652 323.753 102.813 320.918C58.5893 299.394 42.6092 241.763 68.9208 200.073C77.2914 186.805 84.4327 182.597 108.271 177.044Z" fill="#333333"/>
<path d="M202.845 238.855C211.068 236.306 219.878 236.379 228.057 239.06C234.067 241.038 239.813 243.103 244.884 246.282C268.337 260.99 268.264 289.79 245.573 305.567C227.412 318.209 199.987 317.55 182.427 304.073C161.481 287.988 162.683 259.144 185.666 245.755C190.899 242.708 196.733 240.745 202.845 238.855ZM233.656 258.749C221.93 252.801 208.02 252.669 196.308 258.661C195.121 259.261 193.977 259.921 192.893 260.653C180.463 268.974 181.005 282.729 193.142 291.651C205.63 300.821 225.917 300.44 238.054 290.816C248.754 282.319 249.34 269.208 238.127 261.4C236.705 260.404 235.21 259.54 233.656 258.749Z" fill="#333333"/>
<path d="M199.861 186.74C201.444 192.457 201.677 198.482 200.5 204.301C200.384 204.858 200.267 205.371 200.151 205.826C197.187 216.951 189.023 224.647 179.551 225.644C170.078 226.655 160.432 220.88 155.231 210.663C149.405 199.215 148.417 187.268 153.241 175.248C156.698 166.643 162.843 160.589 172.359 159.519C181.919 158.434 189.618 162.905 194.137 170.909C196.301 174.764 198.393 181.448 199.861 186.74ZM185.522 189.408C184.258 183.398 181.831 178.868 175.904 177.417C174.001 176.948 172.127 176.978 170.587 177.93C168.785 179.059 165.502 184.761 165.473 187.004C165.458 188.133 166.127 193.278 166.359 193.879C168.015 198.379 169.265 202.102 171.313 205.298C175.018 211.117 182.209 210.853 184.505 204.448C185.463 201.809 186.713 195.051 185.522 189.408Z" fill="#333333"/>
<path d="M157.254 244.659C157.254 256.993 150.781 267.341 141.41 269.954C131.692 272.669 120.303 267.998 115.473 256.336C112.027 248.016 111.047 238.018 111.422 228.881C111.753 220.825 117.477 214.753 125.81 212.359C134.201 209.951 141.9 212.432 146.629 218.942C151.978 226.327 157.99 244.28 157.254 244.659ZM140.444 247.768C141.871 245.083 141.482 243.098 140.66 239.639C140.357 238.354 138.396 233.873 136.883 231.523C135.167 228.852 130.553 228.648 128.045 230.575C127.31 231.129 125.954 232.968 125.926 233.8C125.753 237.975 126.949 241.288 127.814 244.776C127.973 245.418 129.717 249.111 130.28 249.637C133.365 252.57 138.382 251.651 140.386 247.885L140.444 247.768Z" fill="#333333"/>
<path d="M233.888 170.909C238.405 162.891 246.103 158.435 255.66 159.52C265.159 160.59 271.303 166.644 274.775 175.248C279.611 187.268 278.609 199.215 272.785 210.663C267.585 220.88 257.941 226.655 248.471 225.644C239.015 224.632 230.838 216.937 227.875 205.826C227.759 205.371 227.643 204.858 227.527 204.301C226.336 198.482 226.582 192.472 228.166 186.74C229.618 181.463 231.71 174.779 233.888 170.909ZM243.503 204.492C245.813 210.883 252.988 211.161 256.692 205.342C258.74 202.132 259.989 198.408 261.644 193.923C261.877 193.307 262.545 188.162 262.53 187.048C262.501 184.805 259.219 179.103 257.418 177.975C255.878 177.007 254.005 176.992 252.102 177.462C246.176 178.913 243.75 183.442 242.487 189.452C241.296 195.066 242.545 201.824 243.503 204.492Z" fill="#333333"/>
<path d="M281.629 218.942C286.448 212.432 294.333 209.951 302.91 212.359C311.428 214.753 317.279 220.839 317.618 228.882C318.001 238.019 317.014 248.017 313.477 256.337C308.54 267.985 296.897 272.67 286.964 269.955C277.385 267.328 270.753 256.994 270.768 244.66C270.016 244.281 276.162 226.327 281.629 218.942ZM288.011 247.886C290.059 251.666 295.188 252.586 298.342 249.637C298.916 249.097 300.7 245.405 300.862 244.777C301.746 241.274 302.969 237.975 302.792 233.801C302.763 232.969 301.377 231.144 300.626 230.575C298.047 228.663 293.331 228.853 291.592 231.524C290.059 233.874 288.04 238.369 287.731 239.639C286.891 243.098 286.493 245.083 287.952 247.769L288.011 247.886Z" fill="#333333"/>
<path d="M213.239 427C95.3398 426.945 -0.12368 331.203 0.000120275 213.149C0.12392 95.8933 96.3165 -0.192295 213.39 0.000288992C331.358 0.192873 427.151 96.0446 427 213.713C426.862 331.795 331.385 427.069 213.239 427ZM213.761 15.5033C105.519 14.8568 15.9428 103.583 15.1587 212.173C14.3747 321.051 103.057 411.167 211.67 411.868C321.302 412.57 411.126 324.311 411.869 215.144C412.625 105.399 324.053 16.1498 213.761 15.5033Z" fill="#333333"/>
<defs>
<radialGradient id="paint0_radial_510:78" cx="0" cy="0" r="1" gradientUnits="userSpaceOnUse" gradientTransform="translate(213.5 213.5) rotate(90) scale(204.306)">
<stop offset="0.59375" stop-color="#73D5C3"/>
<stop offset="1" stop-color="#1EA099"/>
</radialGradient>
</defs>
</svg>
