<svg width="551" height="629" viewBox="0 0 551 629" fill="none" xmlns="http://www.w3.org/2000/svg">
  <path
    d="M35.2969 533.516L35.8594 543.781C35.8594 544.344 35.8125 545.375 35.7188 546.875C35.7188 548.375 35.1562 549.734 34.0312 550.953C33 552.078 31.6875 552.641 30.0938 552.641C28.5938 552.641 27.4219 552.594 26.5781 552.5C23.4844 552.5 21.9375 551.141 21.9375 548.422C21.9375 546.172 22.9688 537.125 25.0312 521.281C27.0938 505.344 28.4062 495.078 28.9688 490.484C29.5312 485.891 30 482.047 30.375 478.953C30.8438 475.766 31.1719 473.422 31.3594 471.922C31.5469 470.422 31.8281 468.922 32.2031 467.422C32.5781 465.922 33.1406 464.703 33.8906 463.766C35.2969 461.984 38.0156 461.094 42.0469 461.094C48.7969 464.469 55.7344 474.031 62.8594 489.781C67.9219 501.031 71.2969 508.156 72.9844 511.156C74.6719 514.156 76.3125 516.219 77.9062 517.344L106.031 468.406C108 467 109.5 466.297 110.531 466.297C113.531 466.297 115.828 467.656 117.422 470.375C119.016 473.094 120.328 476.422 121.359 480.359C122.484 484.203 123.422 488.469 124.172 493.156C125.016 497.844 125.719 502.766 126.281 507.922C126.938 512.984 127.547 517.953 128.109 522.828C129.422 534.547 130.406 541.906 131.062 544.906C131.812 547.906 132.188 550.062 132.188 551.375C132.188 552.594 131.766 553.812 130.922 555.031C130.078 556.156 128.906 556.719 127.406 556.719C125.906 556.719 124.406 556.156 122.906 555.031C121.406 553.812 120.469 552.359 120.094 550.672C119.812 548.891 119.484 546.594 119.109 543.781C118.828 540.969 118.453 537.828 117.984 534.359C117.516 530.797 117.047 527.094 116.578 523.25C116.109 519.312 115.641 515.562 115.172 512C114.703 508.438 114.281 505.297 113.906 502.578C113.531 499.766 113.25 497.656 113.062 496.25C113.062 494.375 113.016 492.641 112.922 491.047C112.828 489.453 112.453 488.469 111.797 488.094C111.141 487.719 110.109 488.188 108.703 489.5C107.391 490.719 105.516 493.25 103.078 497.094C97.8281 505.25 90.2344 518.984 80.2969 538.297C78.9844 540.641 77.25 541.156 75.0938 539.844C72.5625 538.438 70.4062 534.828 68.625 529.016L42.75 474.031C40.5 478.531 38.4375 493.438 36.5625 518.75C36.2812 521.844 36.0938 524.469 36 526.625C35.5312 528.969 35.2969 531.266 35.2969 533.516ZM144.422 530.281C144.422 519.219 149.203 510.312 158.766 503.562C166.359 498.219 175.5 494.984 186.188 493.859C186.75 493.859 188.062 493.859 190.125 493.859C192.188 493.859 194.953 494.469 198.422 495.688C206.109 498.312 211.359 502.953 214.172 509.609C215.297 512.234 215.859 514.484 215.859 516.359C215.859 518.141 215.812 519.406 215.719 520.156C215.719 531.875 211.266 541.109 202.359 547.859C194.109 554.047 183.797 557.141 171.422 557.141C162.516 557.141 155.766 555.078 151.172 550.953C146.672 546.828 144.422 539.938 144.422 530.281ZM154.125 533.656C154.125 539.469 155.672 543.406 158.766 545.469C161.109 546.969 165.047 547.719 170.578 547.719C176.109 547.719 180.984 547.297 185.203 546.453C189.422 545.609 193.172 544.156 196.453 542.094C203.484 537.594 207 530.609 207 521.141C207 515.516 205.5 510.922 202.5 507.359C199.219 503.516 194.906 501.594 189.562 501.594C185.906 502.25 182.203 502.953 178.453 503.703C174.797 504.453 171.328 505.906 168.047 508.062C160.922 512.656 156.281 521.188 154.125 533.656ZM276.75 526.203C276.75 515.047 276.141 506.844 274.922 501.594C275.672 500.188 274.547 499.484 271.547 499.484C268.359 499.484 264.234 500.281 259.172 501.875C254.109 503.469 249.984 505.062 246.797 506.656C239.203 510.312 234.984 513.875 234.141 517.344V555.594H224.719C223.5 552.406 222.891 543.453 222.891 528.734C222.891 515.609 223.125 505.953 223.594 499.766C224.156 493.578 224.578 490.062 224.859 489.219C227.297 487.625 229.266 486.828 230.766 486.828C233.109 486.828 234.281 489.594 234.281 495.125C234.281 497.281 234.141 499.391 233.859 501.453C233.672 503.422 233.578 504.781 233.578 505.531C248.766 494.375 260.531 488.797 268.875 488.797C278.344 488.797 283.734 496.438 285.047 511.719C285.609 517.062 285.891 524.469 285.891 533.938L285.75 545.047C285.75 549.172 285.844 553.156 286.031 557C285.094 557.562 284.344 557.844 283.781 557.844C283.5 557.75 282.891 557.609 281.953 557.422C281.016 557.234 279.797 557.094 278.297 557C277.359 553.25 276.844 549.453 276.75 545.609C276.656 541.672 276.609 538.062 276.609 534.781L276.75 526.203ZM297.422 530.281C297.422 519.219 302.203 510.312 311.766 503.562C319.359 498.219 328.5 494.984 339.188 493.859C339.75 493.859 341.062 493.859 343.125 493.859C345.188 493.859 347.953 494.469 351.422 495.688C359.109 498.312 364.359 502.953 367.172 509.609C368.297 512.234 368.859 514.484 368.859 516.359C368.859 518.141 368.812 519.406 368.719 520.156C368.719 531.875 364.266 541.109 355.359 547.859C347.109 554.047 336.797 557.141 324.422 557.141C315.516 557.141 308.766 555.078 304.172 550.953C299.672 546.828 297.422 539.938 297.422 530.281ZM307.125 533.656C307.125 539.469 308.672 543.406 311.766 545.469C314.109 546.969 318.047 547.719 323.578 547.719C329.109 547.719 333.984 547.297 338.203 546.453C342.422 545.609 346.172 544.156 349.453 542.094C356.484 537.594 360 530.609 360 521.141C360 515.516 358.5 510.922 355.5 507.359C352.219 503.516 347.906 501.594 342.562 501.594C338.906 502.25 335.203 502.953 331.453 503.703C327.797 504.453 324.328 505.906 321.047 508.062C313.922 512.656 309.281 521.188 307.125 533.656ZM388.828 531.406L389.531 543.641C389.531 551.141 387.75 555.688 384.188 557.281C383.438 557.562 382.547 557.703 381.516 557.703C380.484 557.703 379.266 557.469 377.859 557L378 504.406C378 496.812 377.531 489.219 376.594 481.625C375.75 473.938 375.328 466.297 375.328 458.703C375.328 455.703 376.922 454.203 380.109 454.203H381.234C381.891 454.203 382.312 454.25 382.5 454.344C383.906 460.156 384.844 467.188 385.312 475.438C386.344 493.719 387.281 506 388.125 512.281C389.719 511.438 393.281 509.047 398.812 505.109C404.344 501.172 408.797 498.031 412.172 495.688C415.547 493.25 418.734 491 421.734 488.938C428.766 484.344 433.172 482.047 434.953 482.047C436.453 482.047 437.625 482.938 438.469 484.719C433.781 490.625 426.234 497.188 415.828 504.406C411.609 507.312 407.391 510.219 403.172 513.125C399.047 515.938 395.25 518.891 391.781 521.984C398.062 523.672 404.016 525.453 409.641 527.328C415.266 529.109 420.703 530.75 425.953 532.25C438.047 535.812 448.453 537.828 457.172 538.297C457.172 540.828 456.938 542.469 456.469 543.219C455.625 544.531 453.891 545.281 451.266 545.469H450.141C444.422 543.875 436.828 542.094 427.359 540.125C408.703 536.281 395.859 533.375 388.828 531.406ZM492.047 547.156C500.297 547.156 512.719 543.406 529.312 535.906C530.344 535.906 531.188 536.281 531.844 537.031C532.5 537.688 532.828 538.484 532.828 539.422C529.078 545.797 521.906 550.766 511.312 554.328C500.719 557.891 490.828 558.5 481.641 556.156C471.234 553.438 464.906 547.578 462.656 538.578C462.469 536.797 462.375 534.406 462.375 531.406C462.375 528.406 463.125 524.469 464.625 519.594C466.219 514.625 468.891 509.938 472.641 505.531C476.391 501.125 480.797 497.656 485.859 495.125C490.922 492.594 496.312 491.328 502.031 491.328C507.469 491.328 513.562 493.203 520.312 496.953C523.5 498.734 526.031 500.75 527.906 503C529.781 505.25 530.719 507.547 530.719 509.891C530.719 510.547 530.672 511.203 530.578 511.859C530.391 517.578 527.625 521.188 522.281 522.688C519.938 523.344 517.219 523.672 514.125 523.672L493.875 522.828C487.125 522.828 481.969 524.281 478.406 527.188C476.344 528.781 474.891 531.172 474.047 534.359C476.391 542.891 482.391 547.156 492.047 547.156ZM517.078 503.703C515.016 502.203 512.859 501.125 510.609 500.469C508.359 499.812 506.484 499.484 504.984 499.484C503.484 499.484 501.047 500 497.672 501.031C494.297 501.969 491.297 503.047 488.672 504.266C482.203 507.266 478.969 510.406 478.969 513.688C486.469 514.344 492.094 514.672 495.844 514.672C506.25 514.672 513.281 513.781 516.938 512C519.188 511.062 520.312 509.891 520.312 508.484C520.312 506.797 519.234 505.203 517.078 503.703Z"
    fill="#333333" />
  <path
    d="M5.71976 618.056C4.56776 618.056 3.57576 617.848 2.74376 617.432C2.23176 617.144 1.97576 616.808 1.97576 616.424C1.97576 616.04 2.07176 615.736 2.26376 615.512C2.45576 615.256 2.72776 615.128 3.07976 615.128C3.39976 615.128 3.86376 615.256 4.47176 615.512C5.14376 615.768 5.55976 615.896 5.71976 615.896C6.32776 615.896 6.87176 615.64 7.35176 615.128C7.86376 614.584 8.26376 613.88 8.55176 613.016C9.12776 611.416 9.41576 609.976 9.41576 608.696C9.41576 607.32 9.19176 605.88 8.74376 604.376C8.32776 602.84 7.75176 601.352 7.01576 599.912L6.24776 598.376C5.44776 596.776 4.82376 595.512 4.37576 594.584C3.95976 593.656 3.59176 592.648 3.27176 591.56C2.79176 590.024 2.55176 588.536 2.55176 587.096C2.55176 585.944 2.74376 584.856 3.12776 583.832C3.54376 582.808 4.15176 581.944 4.95176 581.24C5.75176 580.472 6.74376 580.088 7.92776 580.088C8.50376 580.088 9.06376 580.264 9.60776 580.616C10.1518 580.936 10.5358 581.352 10.7598 581.864L9.94376 582.872C9.11176 582.872 8.48776 582.712 8.07176 582.392C7.49576 582.456 6.98376 582.744 6.53576 583.256C6.11976 583.736 5.79976 584.296 5.57576 584.936C5.38376 585.544 5.28776 586.152 5.28776 586.76C5.28776 587.976 5.44776 589.224 5.76776 590.504C6.11976 591.752 6.56776 592.936 7.11176 594.056L10.4718 600.776C11.0158 601.928 11.4478 603.224 11.7678 604.664C12.0878 606.104 12.2478 607.544 12.2478 608.984C12.2478 611.096 11.7358 613.08 10.7118 614.936C10.1678 615.896 9.46376 616.648 8.59976 617.192C7.73576 617.768 6.77576 618.056 5.71976 618.056ZM44.4865 617.432C43.7505 617.432 43.2065 617.32 42.8545 617.096C42.5025 616.872 42.3265 616.456 42.3265 615.848C42.3265 614.888 42.1665 613.256 41.8465 610.952L41.6545 609.944L36.9025 609.224C36.7105 609.96 36.4385 611.448 36.0865 613.688C35.8945 615.256 35.5905 616.296 35.1745 616.808C34.9505 617.096 34.6305 617.24 34.2145 617.24C33.8305 617.24 33.4785 617.128 33.1585 616.904C32.8385 616.648 32.6785 616.344 32.6785 615.992L32.7745 615.752L32.8225 615.56C34.9345 607.336 36.5345 599.224 37.6225 591.224C37.6225 591.096 37.6385 590.888 37.6705 590.6C37.7025 590.28 37.7345 589.832 37.7665 589.256C37.8625 588.072 37.9585 587.128 38.0545 586.424C38.1825 585.72 38.3745 585.192 38.6305 584.84H40.2625C40.7105 584.84 41.0945 584.952 41.4145 585.176C41.7345 585.368 41.8945 585.656 41.8945 586.04C41.8945 588.472 42.2305 592.088 42.9025 596.888C43.5425 601.816 43.8625 605.272 43.8625 607.256C43.8625 607.448 43.9425 607.944 44.1025 608.744C44.2625 609.48 44.3425 609.96 44.3425 610.184C44.3425 610.408 44.5025 611.368 44.8225 613.064C45.1105 614.6 45.2545 615.592 45.2545 616.04V616.088C45.2545 616.792 44.9985 617.24 44.4865 617.432ZM41.3185 608.216C41.2225 607.736 41.1745 607.144 41.1745 606.44C41.1745 603.56 40.9185 599.88 40.4065 595.4L39.9265 590.408C38.5505 597.928 37.6065 603.608 37.0945 607.448C37.5745 607.768 38.9825 608.024 41.3185 608.216ZM74.0463 617.768C72.8943 617.384 71.4703 617.192 69.7743 617.192C69.2623 617.512 68.7183 617.672 68.1423 617.672C67.7583 617.672 67.4223 617.496 67.1343 617.144C66.8783 616.824 66.7503 616.472 66.7503 616.088C66.7503 613.4 66.8623 609.816 67.0863 605.336C67.2783 600.568 67.3743 597 67.3743 594.632V594.296C67.1823 592.28 67.0863 590.776 67.0863 589.784C67.0863 586.744 67.6463 585.224 68.7663 585.224C69.0863 585.224 69.3583 585.352 69.5823 585.608C69.8383 585.832 69.9663 586.104 69.9663 586.424C69.9663 586.808 69.9183 587.416 69.8223 588.248C69.7263 589.048 69.6783 589.656 69.6783 590.072C69.6783 592.216 69.6943 594.152 69.7263 595.88C69.7583 597.576 69.7743 599.496 69.7743 601.64C69.6143 602.12 69.5343 602.792 69.5343 603.656V604.232L69.4383 608.024C69.3743 609.144 69.3423 610.424 69.3423 611.864C69.3423 614.072 69.8703 615.176 70.9263 615.176C70.9903 615.176 71.0863 615.176 71.2143 615.176C71.3743 615.144 71.5823 615.128 71.8383 615.128C72.1263 615.096 72.4943 615.08 72.9423 615.08C74.6703 615.08 75.5343 615.56 75.5343 616.52C75.5343 616.84 75.3903 617.112 75.1023 617.336C74.8143 617.56 74.4623 617.704 74.0463 617.768ZM100.474 616.856C100.474 613.176 100.122 609.368 99.418 605.432C98.746 601.496 97.674 596.68 96.202 590.984C96.138 590.664 95.994 590.168 95.77 589.496C95.194 587.704 94.906 586.568 94.906 586.088C94.906 585.8 95.018 585.544 95.242 585.32C95.498 585.096 95.77 584.984 96.058 584.984C96.538 584.984 96.986 585.384 97.402 586.184C97.818 586.952 98.202 587.992 98.554 589.304C98.906 590.584 99.29 592.184 99.706 594.104C100.09 595.928 100.554 598.728 101.098 602.504L101.386 604.376L101.962 608.648C102.09 609.832 102.202 610.68 102.298 611.192C102.97 607.672 103.834 602.584 104.89 595.928C105.754 590.232 106.362 586.344 106.714 584.264H107.77C108.058 584.264 108.314 584.376 108.538 584.6C108.762 584.792 108.874 585.032 108.874 585.32C108.874 586.472 108.73 587.72 108.442 589.064C108.186 590.376 107.786 591.96 107.242 593.816C106.794 595.416 106.49 596.616 106.33 597.416C106.202 598.216 106.074 599.48 105.946 601.208C105.69 605.08 105.29 608.552 104.746 611.624C104.394 613.48 103.93 614.936 103.354 615.992C102.778 617.048 102.122 617.576 101.386 617.576L100.474 616.856ZM133.141 617.624C132.725 617.624 132.341 617.48 131.989 617.192C131.669 616.904 131.493 616.552 131.461 616.136V614.888V613.928C131.429 613.64 131.413 613.304 131.413 612.92C131.413 612.248 131.365 611.224 131.269 609.848L131.173 606.776C131.173 605.208 131.221 602.872 131.317 599.768C131.445 596.984 131.509 594.648 131.509 592.76C131.509 592.312 131.461 591.64 131.365 590.744C131.269 589.816 131.221 589.144 131.221 588.728C131.221 586.456 131.893 585.32 133.237 585.32C134.293 585.32 135.509 585.528 136.885 585.944C138.293 586.36 138.997 586.856 138.997 587.432C138.997 587.752 138.853 588.056 138.565 588.344C138.309 588.6 137.989 588.808 137.605 588.968C136.261 588.488 135.045 588.168 133.957 588.008C133.989 588.488 134.005 589.176 134.005 590.072C134.005 591.352 133.989 592.504 133.957 593.528C133.861 595.064 133.813 596.216 133.813 596.984L133.957 597.752L134.725 597.704C134.981 597.672 135.301 597.656 135.685 597.656C137.221 597.656 137.989 598.104 137.989 599C137.989 599.352 137.845 599.656 137.557 599.912C137.269 600.136 136.901 600.248 136.453 600.248C135.877 600.248 135.429 600.216 135.109 600.152H133.909C133.973 600.984 134.005 602.2 134.005 603.8C134.005 605.4 133.989 606.84 133.957 608.12C133.861 610.072 133.813 611.528 133.813 612.488C133.813 614.28 133.845 615.176 133.909 615.176L135.493 615.128C136.037 615.096 136.693 615.08 137.461 615.08C138.677 615.08 139.285 615.464 139.285 616.232C139.285 616.68 139.077 617.016 138.661 617.24C138.277 617.496 137.797 617.624 137.221 617.624H133.141ZM181.198 619.496C180.206 619.496 179.71 618.504 179.71 616.52V613.448V610.376C179.71 608.776 179.598 606.68 179.374 604.088C179.118 601.176 178.99 599.176 178.99 598.088L179.086 595.112C179.15 594.248 179.182 593.272 179.182 592.184C179.054 592.6 178.526 594.808 177.598 598.808C176.67 602.68 175.71 606.264 174.718 609.56C173.758 612.728 172.974 614.312 172.366 614.312C171.758 614.312 171.262 614.136 170.878 613.784C170.526 613.4 170.35 612.888 170.35 612.248C170.35 610.84 169.774 607.848 168.622 603.272C167.502 598.696 166.478 594.952 165.55 592.04L165.262 597.464C165.006 602.04 164.83 605.848 164.734 608.888C164.67 611.832 164.638 613.848 164.638 614.936C164.638 615.192 164.654 615.432 164.686 615.656V616.328C164.686 616.872 164.574 617.272 164.35 617.528C164.126 617.816 163.71 617.96 163.102 617.96C162.782 617.96 162.478 617.832 162.19 617.576C161.902 617.352 161.758 617.096 161.758 616.808C161.758 613.544 161.998 608.648 162.478 602.12C162.958 595.592 163.198 590.696 163.198 587.432C163.006 587.144 162.91 586.84 162.91 586.52C162.91 586.136 163.086 585.848 163.438 585.656C163.822 585.432 164.27 585.32 164.782 585.32C165.198 585.32 165.966 586.824 167.086 589.832C168.206 592.84 169.326 596.248 170.446 600.056C171.566 603.864 172.286 606.616 172.606 608.312C172.862 607.448 173.07 606.648 173.23 605.912L173.518 604.76C174.542 600.28 175.566 596.232 176.59 592.616C177.198 590.408 177.79 588.68 178.366 587.432C178.942 586.088 179.47 585.416 179.95 585.416C180.398 585.416 180.798 585.544 181.15 585.8C181.534 586.024 181.726 586.328 181.726 586.712C181.726 589.016 181.822 592.472 182.014 597.08C182.238 601.368 182.35 604.696 182.35 607.064L182.302 609.608L182.206 612.152C182.206 612.536 182.254 613.112 182.35 613.88L182.494 615.56C182.526 615.848 182.542 616.072 182.542 616.232C182.574 616.392 182.59 616.488 182.59 616.52C182.75 616.936 182.83 617.24 182.83 617.432C182.83 617.976 182.67 618.456 182.35 618.872C182.03 619.288 181.646 619.496 181.198 619.496ZM211.656 617.912C210.824 617.912 210.056 617.64 209.352 617.096C208.648 616.584 208.072 615.88 207.624 614.984C206.696 613.032 206.12 610.904 205.896 608.6C205.608 606.424 205.464 604.328 205.464 602.312C205.464 601.928 205.48 601.608 205.512 601.352V600.488C205.512 600.328 205.496 600.248 205.464 600.248V599.384L205.512 596.024C205.544 595 205.672 593.368 205.896 591.128C206.056 589.592 206.424 588.104 207 586.664C207.224 586.024 207.512 585.544 207.864 585.224C208.216 584.872 208.616 584.696 209.064 584.696C210.344 584.696 211.496 584.936 212.52 585.416C213.544 585.864 214.408 586.504 215.112 587.336C215.752 588.136 216.296 589.128 216.744 590.312C217.192 591.464 217.512 592.696 217.704 594.008C217.896 595.352 217.992 596.776 217.992 598.28V598.664C217.992 599.656 218.008 600.552 218.04 601.352L218.088 604.088C218.088 613.304 215.944 617.912 211.656 617.912ZM211.464 615.896C212.04 615.896 212.568 615.672 213.048 615.224C213.528 614.744 213.896 614.104 214.152 613.304C214.76 611.672 215.128 609.912 215.256 608.024C215.416 606.392 215.496 604.984 215.496 603.8C215.496 602.36 215.384 600.472 215.16 598.136C214.968 595.672 214.872 593.832 214.872 592.616V591.752C214.808 590.536 214.392 589.48 213.624 588.584C212.888 587.688 211.976 587.24 210.888 587.24C209.8 587.24 209.08 587.864 208.728 589.112C208.408 590.104 208.248 591.384 208.248 592.952C208.248 593.56 208.264 594.072 208.296 594.488V595.784L208.2 597.992C208.136 598.664 208.104 599.4 208.104 600.2C208.104 601.928 208.152 603.64 208.248 605.336C208.376 607.736 208.696 610.072 209.208 612.344C209.72 614.712 210.472 615.896 211.464 615.896ZM241.481 617.672C240.905 617.576 240.409 617.368 239.993 617.048C239.609 616.728 239.385 616.312 239.321 615.8L239.849 614.984C240.041 614.984 240.345 615.048 240.761 615.176C241.241 615.272 241.609 615.32 241.865 615.32C242.441 615.32 242.953 615.064 243.401 614.552C243.881 614.04 244.233 613.368 244.457 612.536C244.873 611 245.081 609.624 245.081 608.408C245.081 606.296 244.409 604.072 243.065 601.736L242.537 600.824C241.929 599.768 241.417 598.824 241.001 597.992C240.585 597.16 240.233 596.264 239.945 595.304C239.561 594.056 239.369 592.808 239.369 591.56C239.369 590.152 239.689 588.68 240.329 587.144C240.649 586.408 241.097 585.816 241.673 585.368C242.281 584.888 242.953 584.648 243.689 584.648C244.265 584.648 244.793 584.84 245.273 585.224C245.785 585.576 246.041 586.008 246.041 586.52C246.041 586.808 245.929 587.032 245.705 587.192C245.481 587.352 245.209 587.432 244.889 587.432C244.537 587.432 244.201 587.336 243.881 587.144C243.177 587.176 242.617 587.8 242.201 589.016C241.849 590.136 241.673 591.064 241.673 591.8C241.673 592.728 241.817 593.672 242.105 594.632C242.393 595.56 242.761 596.408 243.209 597.176L244.265 599.096L245.945 602.264C246.393 603.16 246.745 604.2 247.001 605.384C247.289 606.568 247.433 607.768 247.433 608.984C247.433 610.936 246.985 612.792 246.089 614.552C245.641 615.448 245.001 616.168 244.169 616.712C243.369 617.256 242.473 617.528 241.481 617.528V617.672ZM305.258 617.432C304.522 617.432 303.978 617.32 303.626 617.096C303.274 616.872 303.098 616.456 303.098 615.848C303.098 614.888 302.938 613.256 302.618 610.952L302.426 609.944L297.674 609.224C297.482 609.96 297.21 611.448 296.858 613.688C296.666 615.256 296.362 616.296 295.946 616.808C295.722 617.096 295.402 617.24 294.986 617.24C294.602 617.24 294.25 617.128 293.93 616.904C293.61 616.648 293.45 616.344 293.45 615.992L293.546 615.752L293.594 615.56C295.706 607.336 297.306 599.224 298.394 591.224C298.394 591.096 298.41 590.888 298.442 590.6C298.474 590.28 298.506 589.832 298.538 589.256C298.634 588.072 298.73 587.128 298.826 586.424C298.954 585.72 299.146 585.192 299.402 584.84H301.034C301.482 584.84 301.866 584.952 302.186 585.176C302.506 585.368 302.666 585.656 302.666 586.04C302.666 588.472 303.002 592.088 303.674 596.888C304.314 601.816 304.634 605.272 304.634 607.256C304.634 607.448 304.714 607.944 304.874 608.744C305.034 609.48 305.114 609.96 305.114 610.184C305.114 610.408 305.274 611.368 305.594 613.064C305.882 614.6 306.026 615.592 306.026 616.04V616.088C306.026 616.792 305.77 617.24 305.258 617.432ZM302.09 608.216C301.994 607.736 301.946 607.144 301.946 606.44C301.946 603.56 301.69 599.88 301.178 595.4L300.698 590.408C299.322 597.928 298.378 603.608 297.866 607.448C298.346 607.768 299.754 608.024 302.09 608.216ZM334.818 617.768C333.666 617.384 332.242 617.192 330.546 617.192C330.034 617.512 329.49 617.672 328.914 617.672C328.53 617.672 328.194 617.496 327.906 617.144C327.65 616.824 327.522 616.472 327.522 616.088C327.522 613.4 327.634 609.816 327.858 605.336C328.05 600.568 328.146 597 328.146 594.632V594.296C327.954 592.28 327.858 590.776 327.858 589.784C327.858 586.744 328.418 585.224 329.538 585.224C329.858 585.224 330.13 585.352 330.354 585.608C330.61 585.832 330.738 586.104 330.738 586.424C330.738 586.808 330.69 587.416 330.594 588.248C330.498 589.048 330.45 589.656 330.45 590.072C330.45 592.216 330.466 594.152 330.498 595.88C330.53 597.576 330.546 599.496 330.546 601.64C330.386 602.12 330.306 602.792 330.306 603.656V604.232L330.21 608.024C330.146 609.144 330.114 610.424 330.114 611.864C330.114 614.072 330.642 615.176 331.698 615.176C331.762 615.176 331.858 615.176 331.986 615.176C332.146 615.144 332.354 615.128 332.61 615.128C332.898 615.096 333.266 615.08 333.714 615.08C335.442 615.08 336.306 615.56 336.306 616.52C336.306 616.84 336.162 617.112 335.874 617.336C335.586 617.56 335.234 617.704 334.818 617.768ZM402.939 619.496C401.947 619.496 401.451 618.504 401.451 616.52V613.448V610.376C401.451 608.776 401.339 606.68 401.115 604.088C400.859 601.176 400.731 599.176 400.731 598.088L400.827 595.112C400.891 594.248 400.923 593.272 400.923 592.184C400.795 592.6 400.267 594.808 399.339 598.808C398.411 602.68 397.451 606.264 396.459 609.56C395.499 612.728 394.715 614.312 394.107 614.312C393.499 614.312 393.003 614.136 392.619 613.784C392.267 613.4 392.091 612.888 392.091 612.248C392.091 610.84 391.515 607.848 390.363 603.272C389.243 598.696 388.219 594.952 387.291 592.04L387.003 597.464C386.747 602.04 386.571 605.848 386.475 608.888C386.411 611.832 386.379 613.848 386.379 614.936C386.379 615.192 386.395 615.432 386.427 615.656V616.328C386.427 616.872 386.315 617.272 386.091 617.528C385.867 617.816 385.451 617.96 384.843 617.96C384.523 617.96 384.219 617.832 383.931 617.576C383.643 617.352 383.499 617.096 383.499 616.808C383.499 613.544 383.739 608.648 384.219 602.12C384.699 595.592 384.939 590.696 384.939 587.432C384.747 587.144 384.651 586.84 384.651 586.52C384.651 586.136 384.827 585.848 385.179 585.656C385.563 585.432 386.011 585.32 386.523 585.32C386.939 585.32 387.707 586.824 388.827 589.832C389.947 592.84 391.067 596.248 392.187 600.056C393.307 603.864 394.027 606.616 394.347 608.312C394.603 607.448 394.811 606.648 394.971 605.912L395.259 604.76C396.283 600.28 397.307 596.232 398.331 592.616C398.939 590.408 399.531 588.68 400.107 587.432C400.683 586.088 401.211 585.416 401.691 585.416C402.139 585.416 402.539 585.544 402.891 585.8C403.275 586.024 403.467 586.328 403.467 586.712C403.467 589.016 403.563 592.472 403.755 597.08C403.979 601.368 404.091 604.696 404.091 607.064L404.043 609.608L403.947 612.152C403.947 612.536 403.995 613.112 404.091 613.88L404.235 615.56C404.267 615.848 404.283 616.072 404.283 616.232C404.315 616.392 404.331 616.488 404.331 616.52C404.491 616.936 404.571 617.24 404.571 617.432C404.571 617.976 404.411 618.456 404.091 618.872C403.771 619.288 403.387 619.496 402.939 619.496ZM432.917 617.72C432.149 617.72 431.461 617.544 430.853 617.192C430.245 616.872 429.749 616.392 429.365 615.752C428.597 614.408 428.101 612.888 427.877 611.192C427.653 609.72 427.541 607.96 427.541 605.912C427.445 602.456 427.397 598.232 427.397 593.24L427.349 589.544C427.317 589.352 427.301 589.032 427.301 588.584C427.237 587.368 427.205 586.632 427.205 586.376C427.493 585.704 427.829 585.368 428.213 585.368C428.597 585.368 428.933 585.656 429.221 586.232C429.541 586.808 429.701 587.432 429.701 588.104V601.16C429.701 602.44 429.813 604.136 430.037 606.248C430.261 608.872 430.373 610.568 430.373 611.336C430.373 613.704 431.381 614.888 433.397 614.888C435.701 614.888 436.853 606.28 436.853 589.064V586.376V585.944C436.821 585.848 436.805 585.72 436.805 585.56C436.805 585.176 436.885 584.904 437.045 584.744C437.237 584.552 437.589 584.456 438.101 584.456C438.517 584.456 438.837 584.584 439.061 584.84C439.317 585.064 439.477 585.336 439.541 585.656C439.573 585.848 439.589 586.216 439.589 586.76C439.589 587.272 439.541 588.088 439.445 589.208C439.317 590.136 439.253 590.936 439.253 591.608C439.253 592.344 439.221 593 439.157 593.576L439.061 595.592V595.976C439.093 596.104 439.109 596.248 439.109 596.408C439.109 610.616 437.045 617.72 432.917 617.72ZM475.509 617.144C475.125 617.144 474.837 617.048 474.645 616.856C474.453 616.632 474.309 616.264 474.213 615.752L473.925 614.84V614.744V614.6C473.925 613.544 472.821 609.944 470.613 603.8C468.437 597.656 466.725 593.112 465.477 590.168V614.312L465.669 614.648C465.701 614.712 465.765 614.824 465.861 614.984C465.957 615.144 466.005 615.304 466.005 615.464C466.005 615.88 465.861 616.232 465.573 616.52C465.285 616.808 464.933 616.952 464.517 616.952C463.493 616.952 462.981 615.976 462.981 614.024L462.933 605.816C462.901 603.352 462.885 600.6 462.885 597.56C462.885 596.536 462.933 595.048 463.029 593.096C463.125 591.08 463.173 589.592 463.173 588.632C463.173 587.128 463.749 585.944 464.901 585.08V585.368C465.093 585.304 465.221 585.272 465.285 585.272C466.021 585.272 466.949 586.552 468.069 589.112C468.965 591.16 469.765 593.32 470.469 595.592C471.205 597.864 472.165 601.096 473.349 605.288L473.829 607.016C474.565 609.608 475.125 611.464 475.509 612.584C476.149 605.704 476.469 597.576 476.469 588.2V587.576C476.437 587.384 476.421 587.176 476.421 586.952C476.421 585.992 476.805 585.512 477.573 585.512C478.021 585.512 478.357 585.688 478.581 586.04C478.837 586.392 478.965 586.84 478.965 587.384V590.984C478.901 595.912 478.709 601.256 478.389 607.016C478.069 612.776 477.685 616.024 477.237 616.76C476.309 617.016 475.733 617.144 475.509 617.144ZM504.19 617.288C503.358 617.288 502.942 615.192 502.942 611L503.038 603.416C503.07 601.176 503.086 598.664 503.086 595.88C503.086 594.856 502.99 593.272 502.798 591.128C502.638 588.792 502.558 587.368 502.558 586.856C502.558 586.44 502.734 586.072 503.086 585.752C503.438 585.432 503.822 585.272 504.238 585.272C505.358 585.272 506.43 585.528 507.454 586.04C508.51 586.52 509.438 587.208 510.238 588.104C511.934 590.056 513.054 592.2 513.598 594.536C513.886 595.72 514.03 596.888 514.03 598.04C514.03 598.456 514.014 598.84 513.982 599.192L513.934 600.488V603.128C513.934 605.176 513.87 606.792 513.742 607.976C513.55 609.576 513.182 611 512.638 612.248C511.998 613.592 511.07 614.792 509.854 615.848C509.278 616.328 508.542 616.808 507.646 617.288H504.19ZM506.302 614.84C506.942 614.84 507.534 614.68 508.078 614.36C508.622 614.008 509.086 613.544 509.47 612.968C509.79 612.456 510.078 611.816 510.334 611.048C510.622 610.248 510.83 609.48 510.958 608.744C511.246 607.304 511.422 605.832 511.486 604.328C511.518 603.944 511.534 603.384 511.534 602.648C511.534 592.984 509.662 587.944 505.918 587.528C505.694 588.968 505.582 590.632 505.582 592.52C505.582 594.536 505.71 598.056 505.966 603.08C506.19 607.528 506.302 611.064 506.302 613.688V614.84ZM542.143 617.912C541.311 617.912 540.543 617.64 539.839 617.096C539.135 616.584 538.559 615.88 538.111 614.984C537.183 613.032 536.607 610.904 536.383 608.6C536.095 606.424 535.951 604.328 535.951 602.312C535.951 601.928 535.967 601.608 535.999 601.352V600.488C535.999 600.328 535.983 600.248 535.951 600.248V599.384L535.999 596.024C536.031 595 536.159 593.368 536.383 591.128C536.543 589.592 536.911 588.104 537.487 586.664C537.711 586.024 537.999 585.544 538.351 585.224C538.703 584.872 539.103 584.696 539.551 584.696C540.831 584.696 541.983 584.936 543.007 585.416C544.031 585.864 544.895 586.504 545.599 587.336C546.239 588.136 546.783 589.128 547.231 590.312C547.679 591.464 547.999 592.696 548.191 594.008C548.383 595.352 548.479 596.776 548.479 598.28V598.664C548.479 599.656 548.495 600.552 548.527 601.352L548.575 604.088C548.575 613.304 546.431 617.912 542.143 617.912ZM541.951 615.896C542.527 615.896 543.055 615.672 543.535 615.224C544.015 614.744 544.383 614.104 544.639 613.304C545.247 611.672 545.615 609.912 545.743 608.024C545.903 606.392 545.983 604.984 545.983 603.8C545.983 602.36 545.871 600.472 545.647 598.136C545.455 595.672 545.359 593.832 545.359 592.616V591.752C545.295 590.536 544.879 589.48 544.111 588.584C543.375 587.688 542.463 587.24 541.375 587.24C540.287 587.24 539.567 587.864 539.215 589.112C538.895 590.104 538.735 591.384 538.735 592.952C538.735 593.56 538.751 594.072 538.783 594.488V595.784L538.687 597.992C538.623 598.664 538.591 599.4 538.591 600.2C538.591 601.928 538.639 603.64 538.735 605.336C538.863 607.736 539.183 610.072 539.695 612.344C540.207 614.712 540.959 615.896 541.951 615.896Z"
    fill="#333333" />
  <circle cx="253" cy="209" r="200" fill="#6FBFA2" />
  <circle cx="253" cy="209" r="200" fill="#FFF67D" />
  <circle cx="253" cy="209" r="200" fill="#F2E59F" />
  <circle cx="253" cy="209" r="200" fill="#F2B694" />
  <circle cx="253" cy="209" r="200" fill="url(#paint0_radial_515:93)" />
  <path
    d="M159.093 389.395V316.29L125.036 289.251L104 252.197L112.514 212.641L134.552 184.6H159.093V153.055L172.616 122.01L198.66 115H229.712L254.254 153.055L260.264 130.022L286.809 115H322.87L345.408 137.032V184.6H370.951L385.976 197.619L400 244.186L385.976 289.251L345.408 316.29V389.395C286.308 425.447 231.716 426.949 159.093 389.395Z"
    fill="white" stroke="white" />
  <path d="M178.995 218.499H165.495L159.494 234L165.495 251.501H186.496V234L178.995 218.499Z" fill="#C1E4A5" />
  <path d="M222.998 167.495H206.997L198.997 187.997L206.997 203.498L222.998 209.498L232.999 187.997L222.998 167.495Z"
    fill="#C1E4A5" />
  <path d="M300.003 167.495H288.002L272.501 187.997L278.002 209.498H304.503L309.004 183.496L300.003 167.495Z"
    fill="#C1E4A5" />
  <path d="M347.006 225.999L333.505 216.999L320.004 232.5V250.501L333.505 254.501L347.006 244V225.999Z"
    fill="#C1E4A5" />
  <path d="M222.998 167.495H206.997L198.997 187.997L206.997 203.498L222.998 209.498L232.999 187.997L222.998 167.495Z"
    stroke="#333333" />
  <path d="M300.003 167.495H288.002L272.501 187.997L278.002 209.498H304.503L309.004 183.496L300.003 167.495Z"
    stroke="#333333" />
  <path d="M347.006 225.999L333.505 216.999L320.004 232.5V250.501L333.505 254.501L347.006 244V225.999Z"
    stroke="#333333" />
  <path d="M257.284 237L228.097 247.079L213 261.189L221.052 285.378L257.284 301L291 285.378V261.189L257.284 237Z"
    fill="#6FBFA2" />
  <path d="M257.284 237L228.097 247.079L213 261.189L221.052 285.378L257.284 301L291 285.378V261.189L257.284 237Z"
    fill="#FFF67D" />
  <path d="M257.284 237L228.097 247.079L213 261.189L221.052 285.378L257.284 301L291 285.378V261.189L257.284 237Z"
    fill="#FFE898" />
  <path
    d="M149.989 173.313C150.863 144.089 155.848 115.981 188.367 105.353C214.282 96.8844 236.572 104.752 253.175 127.968C269.964 104.437 292.656 96.7127 318.714 105.553C350.616 116.381 355.602 144.246 356.275 173.27C392.676 181.91 409.852 207.3 406.614 247.224C404.079 278.536 388.593 301.152 360.401 314.884C356.06 317.001 354.814 319.461 354.799 323.967C354.756 342.992 354.298 362.017 354.183 381.042C354.14 386.635 352.35 391.083 346.29 390.898C340.202 390.726 338.798 385.991 338.827 380.527C338.927 358.612 339.013 336.698 338.812 314.798C338.755 308.375 341.534 305.157 347.436 302.925C385.055 288.764 402.417 243.705 384.453 207.486C378.021 194.526 366.732 188.576 352.178 190.464C341.291 191.88 339.228 189.091 339.4 177.905C339.557 167.505 339.357 156.72 336.821 146.721C331.635 126.208 315.992 116.31 295.163 118.37C277.328 120.143 263.518 134.634 261.498 153.716C261.355 155.132 261.312 156.748 261.068 157.878C260.338 161.354 257.301 165.131 253.462 165.031C250.253 164.959 246.686 160.725 245.282 157.464C243.205 152.643 243.62 146.778 241.686 141.843C235.182 125.193 219.639 116.424 201.36 118.413C183.697 120.329 170.804 132.631 167.939 151.942C166.535 161.397 167.065 171.167 167.122 180.794C167.165 188.49 163.899 191.794 156.307 190.836C135.678 188.204 122.671 197.144 118.115 218.243C111.182 250.314 118.001 289.122 160.633 304.07C163.641 305.128 167.079 310.178 167.151 313.453C167.71 336.197 167.395 358.97 167.452 381.743C167.466 387.121 165.217 390.897 159.731 390.998C153.728 391.112 151.45 387.093 151.479 381.371C151.536 362.875 151.307 344.38 151.579 325.884C151.665 320.205 150.362 316.929 144.646 314.154C101.355 293.084 85.7112 236.667 111.468 195.857C119.662 182.868 126.653 178.749 149.989 173.313Z"
    fill="#333333" />
  <path
    d="M242.57 233.821C250.62 231.326 259.244 231.397 267.25 234.022C273.134 235.958 278.758 237.979 283.723 241.091C306.681 255.489 306.61 283.682 284.397 299.127C266.619 311.502 239.772 310.857 222.582 297.664C202.077 281.918 203.254 253.682 225.753 240.575C230.876 237.592 236.587 235.671 242.57 233.821ZM272.732 253.295C261.253 247.473 247.635 247.344 236.171 253.209C235.008 253.797 233.889 254.442 232.827 255.159C220.659 263.305 221.19 276.77 233.071 285.503C245.297 294.48 265.156 294.108 277.036 284.686C287.511 276.369 288.085 263.534 277.108 255.891C275.716 254.915 274.253 254.069 272.732 253.295Z"
    fill="#333333" />
  <path
    d="M239.649 182.805C241.199 188.401 241.426 194.299 240.274 199.995C240.161 200.541 240.047 201.043 239.933 201.488C237.032 212.379 229.039 219.913 219.767 220.888C210.494 221.878 201.051 216.225 195.959 206.223C190.257 195.016 189.29 183.321 194.011 171.554C197.396 163.131 203.412 157.205 212.727 156.157C222.085 155.096 229.622 159.472 234.045 167.307C236.164 171.081 238.212 177.624 239.649 182.805ZM225.612 185.416C224.374 179.533 221.999 175.099 216.197 173.678C214.334 173.219 212.499 173.248 210.992 174.18C209.228 175.285 206.014 180.867 205.986 183.063C205.972 184.168 206.626 189.204 206.853 189.793C208.475 194.198 209.698 197.843 211.703 200.971C215.329 206.668 222.369 206.41 224.616 200.139C225.555 197.556 226.778 190.941 225.612 185.416Z"
    fill="#333333" />
  <path
    d="M197.94 239.504C197.94 251.577 191.603 261.707 182.429 264.265C172.917 266.923 161.767 262.35 157.039 250.934C153.666 242.79 152.707 233.002 153.073 224.058C153.398 216.171 159.001 210.227 167.159 207.884C175.373 205.526 182.909 207.955 187.538 214.328C192.774 221.558 198.66 239.132 197.94 239.504ZM181.484 242.547C182.881 239.918 182.5 237.975 181.695 234.588C181.399 233.331 179.48 228.945 177.998 226.644C176.318 224.03 171.802 223.829 169.346 225.716C168.626 226.258 167.3 228.059 167.272 228.873C167.102 232.96 168.274 236.203 169.12 239.618C169.276 240.247 170.983 243.861 171.534 244.376C174.554 247.248 179.466 246.348 181.427 242.661L181.484 242.547Z"
    fill="#333333" />
  <path
    d="M272.959 167.307C277.381 159.458 284.917 155.096 294.272 156.158C303.571 157.205 309.585 163.132 312.984 171.555C317.718 183.321 316.737 195.016 311.036 206.223C305.946 216.225 296.505 221.878 287.234 220.888C277.978 219.898 269.973 212.365 267.073 201.488C266.959 201.043 266.845 200.541 266.732 199.995C265.566 194.299 265.807 188.415 267.357 182.805C268.779 177.639 270.826 171.096 272.959 167.307ZM282.372 200.182C284.632 206.438 291.656 206.711 295.282 201.014C297.287 197.872 298.509 194.227 300.13 189.836C300.358 189.233 301.012 184.197 300.998 183.106C300.969 180.911 297.756 175.329 295.993 174.224C294.486 173.277 292.651 173.262 290.789 173.722C284.988 175.142 282.613 179.576 281.376 185.459C280.21 190.955 281.433 197.57 282.372 200.182Z"
    fill="#333333" />
  <path
    d="M319.694 214.328C324.412 207.955 332.13 205.526 340.526 207.884C348.865 210.227 354.592 216.186 354.924 224.058C355.299 233.003 354.333 242.791 350.87 250.935C346.037 262.337 334.64 266.924 324.916 264.266C315.539 261.694 309.047 251.578 309.061 239.504C308.326 239.133 314.342 221.558 319.694 214.328ZM325.941 242.662C327.946 246.363 332.967 247.263 336.054 244.377C336.617 243.848 338.362 240.233 338.521 239.619C339.387 236.189 340.584 232.96 340.411 228.874C340.382 228.059 339.026 226.273 338.29 225.716C335.765 223.844 331.149 224.03 329.446 226.645C327.946 228.945 325.97 233.346 325.667 234.589C324.844 237.975 324.455 239.919 325.883 242.548L325.941 242.662Z"
    fill="#333333" />
  <path
    d="M252.744 418C137.33 417.946 43.8789 324.222 44.0001 208.657C44.1213 93.8721 138.286 -0.188242 252.892 0.000282901C368.373 0.188808 462.148 94.0202 462 209.209C461.865 324.801 368.4 418.067 252.744 418ZM253.256 15.1765C147.295 14.5436 59.6068 101.4 58.8392 207.701C58.0717 314.284 144.885 402.501 251.209 403.187C358.53 403.874 446.461 317.476 447.188 210.609C447.928 103.177 361.223 15.8094 253.256 15.1765Z"
    fill="#333333" />
  <defs>
    <radialGradient id="paint0_radial_515:93" cx="0" cy="0" r="1" gradientUnits="userSpaceOnUse"
      gradientTransform="translate(253 209) rotate(90) scale(200)">
      <stop offset="0.59375" stop-color="#73D5C3" />
      <stop offset="1" stop-color="#1EA099" />
    </radialGradient>
  </defs>
</svg>
